<svg width="433" height="90" viewBox="0 0 433 90" fill="none" xmlns="http://www.w3.org/2000/svg">
<g filter="url(#filter0_i_890_162)">
<path d="M40 30H3" stroke="black" stroke-width="5" stroke-linecap="round"/>
<path d="M39.999 62.5299H21.7473" stroke="black" stroke-width="5" stroke-linecap="round"/>
<path d="M39.999 46.0862H11.3882" stroke="black" stroke-width="5" stroke-linecap="round"/>
</g>
<g filter="url(#filter1_i_890_162)">
<path d="M431.644 6.54713C432.631 7.23059 433.148 8.41198 432.963 9.59338L426.713 50.21C426.566 51.157 425.99 51.9869 425.15 52.4556C424.31 52.9242 423.304 52.9828 422.416 52.6118L419.835 51.5398C414.368 49.2685 408.065 50.6475 404.046 54.9941V54.9941C403.177 55.9412 401.81 56.2536 400.609 55.785C399.408 55.3163 398.626 54.1545 398.626 52.8657V44.7033C398.626 44.3127 398.773 43.9417 399.036 43.6586L415.404 25.801C415.97 25.1858 415.951 24.2388 415.365 23.653C414.779 23.0671 413.832 23.0281 413.216 23.5846L400.562 34.8239C396.208 38.6914 389.938 39.5184 384.73 36.9119V36.9119C383.694 36.3945 383.03 35.3595 383.001 34.2074C382.972 33.0553 383.577 31.9813 384.573 31.4053L428.324 6.41044C429.369 5.81486 430.658 5.87345 431.644 6.54713Z" fill="black"/>
</g>
<path d="M404.046 54.9941L403.679 54.6547C407.84 50.1542 414.367 48.7264 420.027 51.078L422.608 52.1501L422.608 52.1504C423.355 52.4622 424.2 52.4131 424.906 52.019C425.612 51.6254 426.095 50.9286 426.218 50.1339L404.046 54.9941ZM404.046 54.9941L403.678 54.656C402.95 55.4497 401.801 55.7136 400.79 55.3192C399.784 54.9266 399.126 53.9518 399.126 52.8657V44.7033C399.126 44.439 399.225 44.1898 399.402 43.9993L399.405 43.9964L415.772 26.1397C415.772 26.1396 415.772 26.1395 415.772 26.1394C416.519 25.3282 416.495 24.0758 415.718 23.2994C414.951 22.5321 413.702 22.4727 412.883 23.2122C412.882 23.2128 412.881 23.2133 412.881 23.2138L400.23 34.4501C396.029 38.1818 389.979 38.9797 384.953 36.4648L384.73 36.9111L384.953 36.4647C384.081 36.0289 383.525 35.1598 383.501 34.1947C383.476 33.2271 383.985 32.3239 384.822 31.8388C384.823 31.8386 384.823 31.8383 384.824 31.8381L428.572 6.84484L404.046 54.9941ZM432.469 9.51733L426.219 50.1335L428.572 6.84459C429.449 6.34494 430.532 6.39344 431.361 6.959C432.192 7.53567 432.624 8.52841 432.469 9.5158L432.469 9.51733Z" stroke="black"/>
<g filter="url(#filter2_i_890_162)">
<path d="M149.35 30.1V51.7C149.35 54.0667 149.967 55.8833 151.2 57.15C152.433 58.3833 154.167 59 156.4 59C158.667 59 160.417 58.3833 161.65 57.15C162.883 55.8833 163.5 54.0667 163.5 51.7V30.1H170.55V51.65C170.55 54.6167 169.9 57.1333 168.6 59.2C167.333 61.2333 165.617 62.7667 163.45 63.8C161.317 64.8333 158.933 65.35 156.3 65.35C153.7 65.35 151.333 64.8333 149.2 63.8C147.1 62.7667 145.433 61.2333 144.2 59.2C142.967 57.1333 142.35 54.6167 142.35 51.65V30.1H149.35ZM192.663 36.9C195.963 36.9 198.63 37.95 200.663 40.05C202.697 42.1167 203.713 45.0167 203.713 48.75V65H196.713V49.7C196.713 47.5 196.163 45.8167 195.063 44.65C193.963 43.45 192.463 42.85 190.563 42.85C188.63 42.85 187.097 43.45 185.963 44.65C184.863 45.8167 184.313 47.5 184.313 49.7V65H177.313V37.3H184.313V40.75C185.247 39.55 186.43 38.6167 187.863 37.95C189.33 37.25 190.93 36.9 192.663 36.9ZM208.57 51.05C208.57 48.25 209.12 45.7667 210.22 43.6C211.353 41.4333 212.887 39.7667 214.82 38.6C216.753 37.4333 218.903 36.85 221.27 36.85C223.07 36.85 224.787 37.25 226.42 38.05C228.053 38.8167 229.353 39.85 230.32 41.15V28H237.42V65H230.32V60.9C229.453 62.2667 228.237 63.3667 226.67 64.2C225.103 65.0333 223.287 65.45 221.22 65.45C218.887 65.45 216.753 64.85 214.82 63.65C212.887 62.45 211.353 60.7667 210.22 58.6C209.12 56.4 208.57 53.8833 208.57 51.05ZM230.37 51.15C230.37 49.45 230.037 48 229.37 46.8C228.703 45.5667 227.803 44.6333 226.67 44C225.537 43.3333 224.32 43 223.02 43C221.72 43 220.52 43.3167 219.42 43.95C218.32 44.5833 217.42 45.5167 216.72 46.75C216.053 47.95 215.72 49.3833 215.72 51.05C215.72 52.7167 216.053 54.1833 216.72 55.45C217.42 56.6833 218.32 57.6333 219.42 58.3C220.553 58.9667 221.753 59.3 223.02 59.3C224.32 59.3 225.537 58.9833 226.67 58.35C227.803 57.6833 228.703 56.75 229.37 55.55C230.037 54.3167 230.37 52.85 230.37 51.15ZM242.457 51.05C242.457 48.25 243.007 45.7667 244.107 43.6C245.24 41.4333 246.757 39.7667 248.657 38.6C250.59 37.4333 252.74 36.85 255.107 36.85C257.173 36.85 258.973 37.2667 260.507 38.1C262.073 38.9333 263.323 39.9833 264.257 41.25V37.3H271.307V65H264.257V60.95C263.357 62.25 262.107 63.3333 260.507 64.2C258.94 65.0333 257.123 65.45 255.057 65.45C252.723 65.45 250.59 64.85 248.657 63.65C246.757 62.45 245.24 60.7667 244.107 58.6C243.007 56.4 242.457 53.8833 242.457 51.05ZM264.257 51.15C264.257 49.45 263.923 48 263.257 46.8C262.59 45.5667 261.69 44.6333 260.557 44C259.423 43.3333 258.207 43 256.907 43C255.607 43 254.407 43.3167 253.307 43.95C252.207 44.5833 251.307 45.5167 250.607 46.75C249.94 47.95 249.607 49.3833 249.607 51.05C249.607 52.7167 249.94 54.1833 250.607 55.45C251.307 56.6833 252.207 57.6333 253.307 58.3C254.44 58.9667 255.64 59.3 256.907 59.3C258.207 59.3 259.423 58.9833 260.557 58.35C261.69 57.6833 262.59 56.75 263.257 55.55C263.923 54.3167 264.257 52.85 264.257 51.15ZM293.493 36.9C296.793 36.9 299.46 37.95 301.493 40.05C303.527 42.1167 304.543 45.0167 304.543 48.75V65H297.543V49.7C297.543 47.5 296.993 45.8167 295.893 44.65C294.793 43.45 293.293 42.85 291.393 42.85C289.46 42.85 287.927 43.45 286.793 44.65C285.693 45.8167 285.143 47.5 285.143 49.7V65H278.143V37.3H285.143V40.75C286.077 39.55 287.26 38.6167 288.693 37.95C290.16 37.25 291.76 36.9 293.493 36.9ZM322.05 36.85C324.117 36.85 325.933 37.2667 327.5 38.1C329.067 38.9 330.3 39.95 331.2 41.25V37.3H338.25V65.2C338.25 67.7667 337.733 70.05 336.7 72.05C335.667 74.0833 334.117 75.6833 332.05 76.85C329.983 78.05 327.483 78.65 324.55 78.65C320.617 78.65 317.383 77.7333 314.85 75.9C312.35 74.0667 310.933 71.5667 310.6 68.4H317.55C317.917 69.6667 318.7 70.6667 319.9 71.4C321.133 72.1667 322.617 72.55 324.35 72.55C326.383 72.55 328.033 71.9333 329.3 70.7C330.567 69.5 331.2 67.6667 331.2 65.2V60.9C330.3 62.2 329.05 63.2833 327.45 64.15C325.883 65.0167 324.083 65.45 322.05 65.45C319.717 65.45 317.583 64.85 315.65 63.65C313.717 62.45 312.183 60.7667 311.05 58.6C309.95 56.4 309.4 53.8833 309.4 51.05C309.4 48.25 309.95 45.7667 311.05 43.6C312.183 41.4333 313.7 39.7667 315.6 38.6C317.533 37.4333 319.683 36.85 322.05 36.85ZM331.2 51.15C331.2 49.45 330.867 48 330.2 46.8C329.533 45.5667 328.633 44.6333 327.5 44C326.367 43.3333 325.15 43 323.85 43C322.55 43 321.35 43.3167 320.25 43.95C319.15 44.5833 318.25 45.5167 317.55 46.75C316.883 47.95 316.55 49.3833 316.55 51.05C316.55 52.7167 316.883 54.1833 317.55 55.45C318.25 56.6833 319.15 57.6333 320.25 58.3C321.383 58.9667 322.583 59.3 323.85 59.3C325.15 59.3 326.367 58.9833 327.5 58.35C328.633 57.6833 329.533 56.75 330.2 55.55C330.867 54.3167 331.2 52.85 331.2 51.15ZM343.287 51.05C343.287 48.25 343.837 45.7667 344.937 43.6C346.07 41.4333 347.587 39.7667 349.487 38.6C351.42 37.4333 353.57 36.85 355.937 36.85C358.003 36.85 359.803 37.2667 361.337 38.1C362.903 38.9333 364.153 39.9833 365.087 41.25V37.3H372.137V65H365.087V60.95C364.187 62.25 362.937 63.3333 361.337 64.2C359.77 65.0333 357.953 65.45 355.887 65.45C353.553 65.45 351.42 64.85 349.487 63.65C347.587 62.45 346.07 60.7667 344.937 58.6C343.837 56.4 343.287 53.8833 343.287 51.05ZM365.087 51.15C365.087 49.45 364.753 48 364.087 46.8C363.42 45.5667 362.52 44.6333 361.387 44C360.253 43.3333 359.037 43 357.737 43C356.437 43 355.237 43.3167 354.137 43.95C353.037 44.5833 352.137 45.5167 351.437 46.75C350.77 47.95 350.437 49.3833 350.437 51.05C350.437 52.7167 350.77 54.1833 351.437 55.45C352.137 56.6833 353.037 57.6333 354.137 58.3C355.27 58.9667 356.47 59.3 357.737 59.3C359.037 59.3 360.253 58.9833 361.387 58.35C362.52 57.6833 363.42 56.75 364.087 55.55C364.753 54.3167 365.087 52.85 365.087 51.15ZM394.323 36.9C397.623 36.9 400.29 37.95 402.323 40.05C404.357 42.1167 405.373 45.0167 405.373 48.75V65H398.373V49.7C398.373 47.5 397.823 45.8167 396.723 44.65C395.623 43.45 394.123 42.85 392.223 42.85C390.29 42.85 388.757 43.45 387.623 44.65C386.523 45.8167 385.973 47.5 385.973 49.7V65H378.973V37.3H385.973V40.75C386.907 39.55 388.09 38.6167 389.523 37.95C390.99 37.25 392.59 36.9 394.323 36.9Z" fill="black"/>
</g>
<g filter="url(#filter3_i_890_162)">
<path d="M48.76 45C49.48 40.88 51.06 37.2 53.5 33.96C55.94 30.68 58.94 28.14 62.5 26.34C66.06 24.5 69.84 23.58 73.84 23.58C78.56 23.58 82.44 24.74 85.48 27.06C88.56 29.34 90.42 32.56 91.06 36.72H81.4C80.76 34.96 79.68 33.62 78.16 32.7C76.64 31.78 74.76 31.32 72.52 31.32C70.04 31.32 67.74 31.88 65.62 33C63.5 34.12 61.72 35.72 60.28 37.8C58.84 39.88 57.88 42.28 57.4 45C57.2 45.96 57.1 47.06 57.1 48.3C57.1 51.58 58.06 54.16 59.98 56.04C61.94 57.88 64.62 58.8 68.02 58.8C71.18 58.8 73.94 57.94 76.3 56.22C78.7 54.5 80.48 52.12 81.64 49.08H67.24L68.32 42.72H91L89.68 50.04C88.6 52.96 86.92 55.66 84.64 58.14C82.36 60.62 79.64 62.62 76.48 64.14C73.32 65.62 69.94 66.36 66.34 66.36C62.78 66.36 59.64 65.64 56.92 64.2C54.24 62.76 52.14 60.76 50.62 58.2C49.14 55.6 48.4 52.6 48.4 49.2C48.4 47.84 48.52 46.44 48.76 45ZM112.695 66.42C109.175 66.42 106.055 65.68 103.335 64.2C100.655 62.68 98.5747 60.6 97.0947 57.96C95.6147 55.28 94.8747 52.22 94.8747 48.78C94.8747 43.98 95.9347 39.66 98.0547 35.82C100.215 31.98 103.175 28.98 106.935 26.82C110.735 24.62 114.995 23.52 119.715 23.52C123.275 23.52 126.395 24.26 129.075 25.74C131.795 27.22 133.895 29.3 135.375 31.98C136.855 34.62 137.595 37.64 137.595 41.04C137.595 45.92 136.535 50.28 134.415 54.12C132.295 57.96 129.335 60.98 125.535 63.18C121.735 65.34 117.455 66.42 112.695 66.42ZM113.895 58.68C116.895 58.68 119.535 57.92 121.815 56.4C124.135 54.88 125.915 52.84 127.155 50.28C128.435 47.68 129.075 44.86 129.075 41.82C129.075 38.54 128.155 35.96 126.315 34.08C124.475 32.2 121.895 31.26 118.575 31.26C115.615 31.26 112.975 32.02 110.655 33.54C108.375 35.06 106.595 37.1 105.315 39.66C104.075 42.22 103.455 45.02 103.455 48.06C103.455 51.34 104.355 53.94 106.155 55.86C107.995 57.74 110.575 58.68 113.895 58.68Z" fill="black"/>
</g>
<defs>
<filter id="filter0_i_890_162" x="0.5" y="27.5" width="46" height="41.5299" filterUnits="userSpaceOnUse" color-interpolation-filters="sRGB">
<feFlood flood-opacity="0" result="BackgroundImageFix"/>
<feBlend mode="normal" in="SourceGraphic" in2="BackgroundImageFix" result="shape"/>
<feColorMatrix in="SourceAlpha" type="matrix" values="0 0 0 0 0 0 0 0 0 0 0 0 0 0 0 0 0 0 127 0" result="hardAlpha"/>
<feOffset dx="5" dy="5"/>
<feGaussianBlur stdDeviation="2"/>
<feComposite in2="hardAlpha" operator="arithmetic" k2="-1" k3="1"/>
<feColorMatrix type="matrix" values="0 0 0 0 0 0 0 0 0 0 0 0 0 0 0 0 0 0 0.41 0"/>
<feBlend mode="normal" in2="shape" result="effect1_innerShadow_890_162"/>
</filter>
<filter id="filter1_i_890_162" x="383" y="6" width="54" height="54" filterUnits="userSpaceOnUse" color-interpolation-filters="sRGB">
<feFlood flood-opacity="0" result="BackgroundImageFix"/>
<feBlend mode="normal" in="SourceGraphic" in2="BackgroundImageFix" result="shape"/>
<feColorMatrix in="SourceAlpha" type="matrix" values="0 0 0 0 0 0 0 0 0 0 0 0 0 0 0 0 0 0 127 0" result="hardAlpha"/>
<feOffset dx="5" dy="5"/>
<feGaussianBlur stdDeviation="2"/>
<feComposite in2="hardAlpha" operator="arithmetic" k2="-1" k3="1"/>
<feColorMatrix type="matrix" values="0 0 0 0 0 0 0 0 0 0 0 0 0 0 0 0 0 0 0.41 0"/>
<feBlend mode="normal" in2="shape" result="effect1_innerShadow_890_162"/>
</filter>
<filter id="filter2_i_890_162" x="142.35" y="28" width="264.023" height="52.65" filterUnits="userSpaceOnUse" color-interpolation-filters="sRGB">
<feFlood flood-opacity="0" result="BackgroundImageFix"/>
<feBlend mode="normal" in="SourceGraphic" in2="BackgroundImageFix" result="shape"/>
<feColorMatrix in="SourceAlpha" type="matrix" values="0 0 0 0 0 0 0 0 0 0 0 0 0 0 0 0 0 0 127 0" result="hardAlpha"/>
<feOffset dx="1" dy="4"/>
<feGaussianBlur stdDeviation="1"/>
<feComposite in2="hardAlpha" operator="arithmetic" k2="-1" k3="1"/>
<feColorMatrix type="matrix" values="0 0 0 0 0 0 0 0 0 0 0 0 0 0 0 0 0 0 0.41 0"/>
<feBlend mode="normal" in2="shape" result="effect1_innerShadow_890_162"/>
</filter>
<filter id="filter3_i_890_162" x="48.4004" y="23.52" width="90.1943" height="44.9" filterUnits="userSpaceOnUse" color-interpolation-filters="sRGB">
<feFlood flood-opacity="0" result="BackgroundImageFix"/>
<feBlend mode="normal" in="SourceGraphic" in2="BackgroundImageFix" result="shape"/>
<feColorMatrix in="SourceAlpha" type="matrix" values="0 0 0 0 0 0 0 0 0 0 0 0 0 0 0 0 0 0 127 0" result="hardAlpha"/>
<feOffset dx="1" dy="4"/>
<feGaussianBlur stdDeviation="1"/>
<feComposite in2="hardAlpha" operator="arithmetic" k2="-1" k3="1"/>
<feColorMatrix type="matrix" values="0 0 0 0 0 0 0 0 0 0 0 0 0 0 0 0 0 0 0.41 0"/>
<feBlend mode="normal" in2="shape" result="effect1_innerShadow_890_162"/>
</filter>
</defs>
</svg>
